<svg width="28" height="28" viewBox="0 0 28 28" fill="none" xmlns="http://www.w3.org/2000/svg">
<path d="M22.1666 9.33329H19.8333V12.8333H16.3333V15.1666H19.8333V18.6666H22.1666V15.1666H25.6666V12.8333H22.1666V9.33329ZM4.66659 9.33329C4.66659 11.9933 6.67325 14 9.33325 14C11.9933 14 13.9999 11.9933 13.9999 9.33329C13.9999 6.67329 11.9933 4.66663 9.33325 4.66663C6.67325 4.66663 4.66659 6.67329 4.66659 9.33329ZM11.6666 9.33329C11.6666 10.7076 10.7076 11.6666 9.33325 11.6666C7.95892 11.6666 6.99992 10.7076 6.99992 9.33329C6.99992 7.95896 7.95892 6.99996 9.33325 6.99996C10.7076 6.99996 11.6666 7.95896 11.6666 9.33329ZM4.66659 21C4.66659 19.0703 6.23692 17.5 8.16659 17.5H10.4999C12.4296 17.5 13.9999 19.0703 13.9999 21V22.1666H16.3333V21C16.3333 17.7835 13.7164 15.1666 10.4999 15.1666H8.16659C4.95009 15.1666 2.33325 17.7835 2.33325 21V22.1666H4.66659V21Z" fill="#121212" fill-opacity="0.6"/>
</svg>
