<svg width="28" height="28" viewBox="0 0 28 28" fill="none" xmlns="http://www.w3.org/2000/svg">
<path d="M14.0001 1.55554C11.5775 1.55757 9.2541 2.51819 7.53741 4.22759C5.82071 5.937 4.85022 8.25628 4.83789 10.6789C4.83789 14.3111 6.87567 17.3522 8.369 19.5689L8.64122 19.9733C10.127 22.1267 11.7209 24.2034 13.4168 26.1955L14.0079 26.8878L14.599 26.1955C16.2947 24.2033 17.8886 22.1265 19.3746 19.9733L19.6468 19.5611C21.1323 17.3444 23.1701 14.3111 23.1701 10.6789C23.1578 8.25494 22.1862 5.93448 20.4678 4.22485C18.7495 2.51522 16.4241 1.55551 14.0001 1.55554V1.55554ZM14.0001 14.7778C12.991 14.7778 12.0045 14.4785 11.1655 13.9179C10.3264 13.3572 9.67245 12.5604 9.28627 11.6281C8.9001 10.6958 8.79906 9.66988 8.99593 8.68015C9.1928 7.69041 9.67874 6.78129 10.3923 6.06773C11.1059 5.35417 12.015 4.86823 13.0047 4.67136C13.9945 4.47449 15.0203 4.57553 15.9526 4.9617C16.885 5.34788 17.6818 6.00184 18.2425 6.8409C18.8031 7.67996 19.1023 8.66642 19.1023 9.67554C19.1023 11.0287 18.5648 12.3265 17.6079 13.2834C16.6511 14.2402 15.3533 14.7778 14.0001 14.7778V14.7778Z" fill="#121212" fill-opacity="0.6"/>
<path d="M14 12.5766C15.6022 12.5766 16.9011 11.2778 16.9011 9.67553C16.9011 8.07329 15.6022 6.77441 14 6.77441C12.3977 6.77441 11.0989 8.07329 11.0989 9.67553C11.0989 11.2778 12.3977 12.5766 14 12.5766Z" fill="#121212" fill-opacity="0.6"/>
</svg>
