<svg width="29" height="29" viewBox="0 0 29 29" fill="none" xmlns="http://www.w3.org/2000/svg">
<path d="M22.9583 13.2917H8.62742L13.0137 8.02334C13.2188 7.77658 13.3174 7.45845 13.288 7.13893C13.2585 6.81942 13.1033 6.52469 12.8566 6.31959C12.6098 6.11449 12.2917 6.01582 11.9722 6.04527C11.6527 6.07473 11.3579 6.22991 11.1528 6.47667L5.11117 13.7267C5.07052 13.7843 5.03417 13.8449 5.00242 13.9079C5.00242 13.9683 5.00242 14.0046 4.91784 14.065C4.86307 14.2036 4.83439 14.351 4.83325 14.5C4.83439 14.649 4.86307 14.7965 4.91784 14.935C4.91784 14.9954 4.91784 15.0317 5.00242 15.0921C5.03417 15.1551 5.07052 15.2157 5.11117 15.2733L11.1528 22.5233C11.2664 22.6597 11.4087 22.7694 11.5695 22.8446C11.7303 22.9198 11.9057 22.9586 12.0833 22.9583C12.3656 22.9589 12.6392 22.8606 12.8566 22.6804C12.9789 22.579 13.0801 22.4544 13.1542 22.3138C13.2283 22.1732 13.274 22.0194 13.2886 21.8611C13.3032 21.7029 13.2864 21.5433 13.2392 21.3915C13.1921 21.2397 13.1154 21.0988 13.0137 20.9767L8.62742 15.7083H22.9583C23.2787 15.7083 23.5861 15.581 23.8127 15.3544C24.0393 15.1278 24.1666 14.8205 24.1666 14.5C24.1666 14.1795 24.0393 13.8722 23.8127 13.6456C23.5861 13.419 23.2787 13.2917 22.9583 13.2917Z" fill="#1676EC"/>
</svg>
