<svg width="25" height="20" viewBox="0 0 25 20" fill="none" xmlns="http://www.w3.org/2000/svg">
<path fill-rule="evenodd" clip-rule="evenodd" d="M10.7071 6.2928C11.0976 5.90228 11.7308 5.90228 12.1213 6.2928L18.7071 12.8786C19.0976 13.2691 19.0976 13.9023 18.7071 14.2928C18.3166 14.6833 17.6834 14.6833 17.2929 14.2928L10.7071 7.70701C10.3166 7.31649 10.3166 6.68332 10.7071 6.2928Z" fill="#1676EC"/>
<path fill-rule="evenodd" clip-rule="evenodd" d="M18.2929 6.2928C17.9024 5.90228 17.2692 5.90228 16.8787 6.2928L10.2929 12.8786C9.9024 13.2691 9.9024 13.9023 10.2929 14.2928C10.6834 14.6833 11.3166 14.6833 11.7071 14.2928L18.2929 7.70701C18.6834 7.31649 18.6834 6.68332 18.2929 6.2928Z" fill="#1676EC"/>
<path fill-rule="evenodd" clip-rule="evenodd" d="M7.58537 2L2.38537 10L7.58537 18H22C22.5523 18 23 17.5523 23 17V3C23 2.44772 22.5523 2 22 2H7.58537ZM6.5 20L0 10L6.5 0H22C23.6569 0 25 1.34315 25 3V17C25 18.6569 23.6569 20 22 20H6.5Z" fill="#1676EC"/>
</svg>
