<svg width="19" height="19" viewBox="0 0 19 19" fill="none" xmlns="http://www.w3.org/2000/svg">
<path d="M12.9141 8.90625H6.08594C6.0043 8.90625 5.9375 8.97305 5.9375 9.05469V9.94531C5.9375 10.027 6.0043 10.0938 6.08594 10.0938H12.9141C12.9957 10.0938 13.0625 10.027 13.0625 9.94531V9.05469C13.0625 8.97305 12.9957 8.90625 12.9141 8.90625Z" fill="#EF4444"/>
<path d="M9.5 1.1875C4.90957 1.1875 1.1875 4.90957 1.1875 9.5C1.1875 14.0904 4.90957 17.8125 9.5 17.8125C14.0904 17.8125 17.8125 14.0904 17.8125 9.5C17.8125 4.90957 14.0904 1.1875 9.5 1.1875ZM9.5 16.4023C5.68887 16.4023 2.59766 13.3111 2.59766 9.5C2.59766 5.68887 5.68887 2.59766 9.5 2.59766C13.3111 2.59766 16.4023 5.68887 16.4023 9.5C16.4023 13.3111 13.3111 16.4023 9.5 16.4023Z" fill="#EF4444"/>
</svg>
