<svg width="29" height="29" viewBox="0 0 29 29" fill="none" xmlns="http://www.w3.org/2000/svg">
<path d="M7.29814 21.2969C7.35479 21.2969 7.41143 21.2912 7.46807 21.2827L12.2315 20.4473C12.2882 20.4359 12.342 20.4104 12.3816 20.368L24.3866 8.36299C24.4129 8.33679 24.4337 8.30567 24.4479 8.27141C24.4621 8.23715 24.4694 8.20042 24.4694 8.16333C24.4694 8.12624 24.4621 8.08951 24.4479 8.05525C24.4337 8.02099 24.4129 7.98987 24.3866 7.96367L19.6798 3.254C19.626 3.2002 19.5552 3.17188 19.4787 3.17188C19.4022 3.17188 19.3314 3.2002 19.2776 3.254L7.27266 15.259C7.23018 15.3015 7.20469 15.3524 7.19336 15.4091L6.35791 20.1726C6.33036 20.3243 6.3402 20.4804 6.38659 20.6275C6.43298 20.7745 6.51451 20.9081 6.62412 21.0165C6.81103 21.1978 7.04609 21.2969 7.29814 21.2969ZM9.20693 16.3578L19.4787 6.08887L21.5546 8.16475L11.2828 18.4337L8.76514 18.8783L9.20693 16.3578ZM24.9219 23.6758H4.07812C3.57686 23.6758 3.17188 24.0808 3.17188 24.582V25.6016C3.17188 25.7262 3.27383 25.8281 3.39844 25.8281H25.6016C25.7262 25.8281 25.8281 25.7262 25.8281 25.6016V24.582C25.8281 24.0808 25.4231 23.6758 24.9219 23.6758Z" fill="black"/>
</svg>
