<svg width="80" height="80" viewBox="0 0 80 80" fill="none" xmlns="http://www.w3.org/2000/svg">
<g clip-path="url(#clip0)">
<rect width="80" height="80" fill="white"/>
<path d="M78.8065 33.5975L52.6019 7.59227C52.4132 7.40452 52.1891 7.25557 51.9424 7.15394C51.6957 7.05231 51.4312 7 51.1641 7C50.897 7 50.6325 7.05231 50.3858 7.15394C50.1391 7.25557 49.915 7.40452 49.7263 7.59227L23.5217 33.5975C22.7583 34.3556 22.3257 35.3855 22.3257 36.4595C22.3257 38.6898 24.1515 40.5031 26.3973 40.5031H29.1583V59.0593C29.1583 60.1776 30.0681 61.0811 31.1941 61.0811H47.0925V46.9286H54.2178V61.0811H71.134C72.2601 61.0811 73.1698 60.1776 73.1698 59.0593V40.5031H75.9309C77.0124 40.5031 78.0494 40.0798 78.8128 39.3153C80.3969 37.7358 80.3969 35.177 78.8065 33.5975V33.5975Z" fill="#1676EC" fill-opacity="0.4"/>
<path d="M5.69756 71.547V73.978C5.69756 74.4829 5.89766 74.9672 6.25383 75.3242C6.61001 75.6812 7.09308 75.8818 7.59679 75.8818H9.49601C9.99972 75.8818 10.4828 75.6812 10.839 75.3242C11.1951 74.9672 11.3952 74.4829 11.3952 73.978V72.0743H34.1859V73.978C34.1859 74.4829 34.386 74.9672 34.7422 75.3242C35.0984 75.6812 35.5815 75.8818 36.0852 75.8818H37.9844C38.4881 75.8818 38.9712 75.6812 39.3273 75.3242C39.6835 74.9672 39.8836 74.4829 39.8836 73.978V71.547C40.4598 71.2158 40.9388 70.7382 41.2722 70.1623C41.6056 69.5865 41.7817 68.9327 41.7828 68.2669V62.5558C41.7828 60.9738 40.8199 59.6202 39.4506 59.0434L36.8525 51.2305C36.4756 50.093 35.7506 49.1035 34.7806 48.4026C33.8106 47.7017 32.6449 47.325 31.4492 47.326H14.132C12.9363 47.325 11.7706 47.7017 10.8006 48.4026C9.83057 49.1035 9.10563 50.093 8.72873 51.2305L6.13059 59.0434C5.43984 59.3334 4.84996 59.8215 4.43503 60.4464C4.02009 61.0712 3.79859 61.8051 3.79834 62.5558V68.2669C3.79834 69.6718 4.56563 70.8864 5.69756 71.547ZM10.4456 68.2669C10.0714 68.2668 9.70084 68.1928 9.35513 68.0491C9.00943 67.9054 8.69534 67.6949 8.4308 67.4296C7.89654 66.8937 7.59654 66.167 7.59679 65.4094C7.59704 64.6518 7.89753 63.9254 8.43214 63.3898C8.96676 62.8543 9.69172 62.5536 10.4475 62.5538C11.2033 62.5541 11.9281 62.8553 12.4624 63.3912C12.9966 63.9271 13.2966 64.6537 13.2964 65.4113C13.2961 66.1689 12.9956 66.8954 12.461 67.4309C11.9264 67.9664 11.2014 68.2672 10.4456 68.2669V68.2669ZM35.1356 68.2669C34.3797 68.2666 33.655 67.9654 33.1207 67.4296C32.5865 66.8937 32.2865 66.167 32.2867 65.4094C32.287 64.6518 32.5875 63.9254 33.1221 63.3898C33.6567 62.8543 34.3816 62.5536 35.1375 62.5538C35.8933 62.5541 36.618 62.8553 37.1523 63.3912C37.6865 63.9271 37.9865 64.6537 37.9863 65.4113C37.986 66.1689 37.6856 66.8954 37.1509 67.4309C36.6163 67.9664 35.8914 68.2672 35.1356 68.2669V68.2669ZM14.132 51.1335H31.4473C31.846 51.1334 32.2347 51.2591 32.5582 51.4928C32.8817 51.7265 33.1236 52.0564 33.2496 52.4356L35.3502 58.7483H10.231L12.3297 52.4356C12.5899 51.657 13.3154 51.1335 14.132 51.1335V51.1335Z" fill="#1676EC"/>
</g>
<defs>
<clipPath id="clip0">
<rect width="80" height="80" fill="white"/>
</clipPath>
</defs>
</svg>
