<svg width="100" height="100" viewBox="0 0 100 100" fill="none" xmlns="http://www.w3.org/2000/svg">
<circle cx="50" cy="50" r="49" stroke="#121212" stroke-opacity="0.6" stroke-width="2"/>
<path d="M61.8438 41.9922H57.4609L56.4168 39.066C56.3447 38.8658 56.2125 38.6927 56.0383 38.5704C55.8641 38.4481 55.6564 38.3826 55.4436 38.3828H45.5564C45.1214 38.3828 44.7314 38.6567 44.5864 39.066L43.5391 41.9922H39.1562C37.7318 41.9922 36.5781 43.1459 36.5781 44.5703V59.2656C36.5781 60.69 37.7318 61.8437 39.1562 61.8437H61.8438C63.2682 61.8437 64.4219 60.69 64.4219 59.2656V44.5703C64.4219 43.1459 63.2682 41.9922 61.8438 41.9922ZM62.1016 59.2656C62.1016 59.4074 61.9855 59.5234 61.8438 59.5234H39.1562C39.0145 59.5234 38.8984 59.4074 38.8984 59.2656V44.5703C38.8984 44.4285 39.0145 44.3125 39.1562 44.3125H45.1729L45.724 42.7721L46.462 40.7031H54.5348L55.2728 42.7721L55.8238 44.3125H61.8438C61.9855 44.3125 62.1016 44.4285 62.1016 44.5703V59.2656ZM50.5 46.375C47.6512 46.375 45.3438 48.6824 45.3438 51.5312C45.3438 54.3801 47.6512 56.6875 50.5 56.6875C53.3488 56.6875 55.6562 54.3801 55.6562 51.5312C55.6562 48.6824 53.3488 46.375 50.5 46.375ZM50.5 54.625C48.792 54.625 47.4062 53.2393 47.4062 51.5312C47.4062 49.8232 48.792 48.4375 50.5 48.4375C52.208 48.4375 53.5938 49.8232 53.5938 51.5312C53.5938 53.2393 52.208 54.625 50.5 54.625Z" fill="#121212" fill-opacity="0.6"/>
</svg>
