<svg width="80" height="80" viewBox="0 0 80 80" fill="none" xmlns="http://www.w3.org/2000/svg">
<path d="M66.667 36.6633H73.3336C73.3336 19.5633 60.4236 6.66663 43.3003 6.66663V13.3333C56.8403 13.3333 66.667 23.1433 66.667 36.6633Z" fill="#1676EC"/>
<path d="M43.3328 26.6667C50.3428 26.6667 53.3328 29.6567 53.3328 36.6667H59.9995C59.9995 25.9166 54.0828 20 43.3328 20V26.6667ZM54.7395 44.81C54.099 44.2278 53.2573 43.9173 52.3922 43.9441C51.527 43.9708 50.7061 44.3327 50.1028 44.9533L42.1261 53.1567C40.2061 52.79 36.3461 51.5867 32.3728 47.6233C28.3995 43.6467 27.1961 39.7767 26.8395 37.87L35.0361 29.89C35.6575 29.2871 36.0199 28.4661 36.0467 27.6007C36.0734 26.7353 35.7624 25.8935 35.1795 25.2533L22.8628 11.71C22.2796 11.0678 21.4691 10.6783 20.6033 10.6242C19.7376 10.57 18.8848 10.8555 18.2261 11.42L10.9928 17.6233C10.4165 18.2017 10.0725 18.9715 10.0261 19.7866C9.97614 20.62 9.02281 40.36 24.3295 55.6733C37.6828 69.0233 54.4095 70 59.0161 70C59.6895 70 60.1028 69.98 60.2128 69.9733C61.0279 69.9277 61.7972 69.5822 62.3728 69.0033L68.5728 61.7667C69.1377 61.1084 69.4237 60.2559 69.3702 59.3902C69.3167 58.5244 68.9278 57.7136 68.2861 57.13L54.7395 44.81Z" fill="#1676EC"/>
</svg>
