<svg width="80" height="80" viewBox="0 0 80 80" fill="none" xmlns="http://www.w3.org/2000/svg">
<path d="M24.167 9.99992C26.3337 9.99992 28.3337 10.6999 30.0003 11.8666V9.99992C30.0003 8.23181 30.7027 6.53612 31.9529 5.28587C33.2032 4.03563 34.8989 3.33325 36.667 3.33325C38.4351 3.33325 40.1308 4.03563 41.381 5.28587C42.6313 6.53612 43.3337 8.23181 43.3337 9.99992V11.8999C45.0003 10.7333 47.0003 9.99992 49.167 9.99992C51.8192 9.99992 54.3627 11.0535 56.2381 12.9289C58.1134 14.8042 59.167 17.3478 59.167 19.9999C59.167 25.2666 55.1337 29.5666 50.0003 29.9999H43.3337V33.3333H47.467L49.067 33.7666L64.367 41.3999C67.1003 42.4333 68.4337 44.4666 68.4337 47.4999L68.3337 47.9666V48.4333L65.0003 70.9333C64.8003 72.4999 64.067 73.8666 62.8003 74.9999C61.567 76.1333 60.167 76.6666 58.6003 76.6666H33.3337C31.5003 76.6666 30.0003 76.0333 28.6003 74.6999L6.66699 52.7999L10.167 49.2333C11.1003 48.3333 12.3003 47.7999 13.767 47.7999H14.8337L30.0003 51.0999V29.9999H23.3337C20.8345 29.7748 18.5094 28.6248 16.8138 26.7751C15.1182 24.9253 14.1743 22.5092 14.167 19.9999C14.167 17.3478 15.2206 14.8042 17.0959 12.9289C18.9713 11.0535 21.5148 9.99992 24.167 9.99992V9.99992ZM30.0003 19.9999C30.0003 18.4528 29.3857 16.9691 28.2918 15.8751C27.1978 14.7812 25.7141 14.1666 24.167 14.1666C22.6199 14.1666 21.1362 14.7812 20.0422 15.8751C18.9482 16.9691 18.3337 18.4528 18.3337 19.9999C18.3337 22.9333 20.5003 25.3666 23.3337 25.7666V25.8333H30.0003V19.9999ZM50.0003 25.8333V25.7999C52.8337 25.3999 55.0003 22.9666 55.0003 19.9999C55.0003 16.7999 52.4003 14.1999 49.167 14.1999C45.9337 14.1999 43.3337 16.7999 43.3337 19.9999V25.8333H50.0003Z" fill="#1676EC"/>
</svg>
