<svg width="28" height="28" viewBox="0 0 28 28" fill="none" xmlns="http://www.w3.org/2000/svg">
<path d="M8.45825 3.50002C9.21659 3.50002 9.91659 3.74502 10.4999 4.15335V3.50002C10.4999 2.88118 10.7458 2.28769 11.1833 1.8501C11.6209 1.41252 12.2144 1.16669 12.8333 1.16669C13.4521 1.16669 14.0456 1.41252 14.4832 1.8501C14.9208 2.28769 15.1666 2.88118 15.1666 3.50002V4.16502C15.7499 3.75669 16.4499 3.50002 17.2083 3.50002C18.1365 3.50002 19.0267 3.86877 19.6831 4.52515C20.3395 5.18152 20.7083 6.07176 20.7083 7.00002C20.7083 8.84335 19.2966 10.3484 17.4999 10.5H15.1666V11.6667H16.6133L17.1733 11.8184L22.5283 14.49C23.4849 14.8517 23.9516 15.5634 23.9516 16.625L23.9166 16.7884V16.9517L22.7499 24.8267C22.6799 25.375 22.4233 25.8534 21.9799 26.25C21.5483 26.6467 21.0583 26.8334 20.5099 26.8334H11.6666C11.0249 26.8334 10.4999 26.6117 10.0099 26.145L2.33325 18.48L3.55825 17.2317C3.88492 16.9167 4.30492 16.73 4.81825 16.73H5.19158L10.4999 17.885V10.5H8.16659C7.29188 10.4212 6.47809 10.0187 5.88464 9.37132C5.29118 8.72391 4.96082 7.87827 4.95825 7.00002C4.95825 6.07176 5.327 5.18152 5.98338 4.52515C6.63976 3.86877 7.52999 3.50002 8.45825 3.50002V3.50002ZM10.4999 7.00002C10.4999 6.45854 10.2848 5.93923 9.90193 5.55634C9.51904 5.17346 8.99974 4.95835 8.45825 4.95835C7.91677 4.95835 7.39746 5.17346 7.01458 5.55634C6.63169 5.93923 6.41659 6.45854 6.41659 7.00002C6.41659 8.02669 7.17492 8.87835 8.16659 9.01835V9.04169H10.4999V7.00002ZM17.4999 9.04169V9.03002C18.4916 8.89002 19.2499 8.03835 19.2499 7.00002C19.2499 5.88002 18.3399 4.97002 17.2083 4.97002C16.0766 4.97002 15.1666 5.88002 15.1666 7.00002V9.04169H17.4999Z" fill="#121212" fill-opacity="0.6"/>
</svg>
