<svg width="18" height="18" viewBox="0 0 18 18" fill="none" xmlns="http://www.w3.org/2000/svg">
<path d="M16.8719 8.38816L1.74689 0.82566C1.62834 0.766375 1.49519 0.74262 1.36345 0.757257C1.23172 0.771894 1.10703 0.824298 1.00439 0.90816C0.906366 0.990311 0.833204 1.09818 0.793125 1.21963C0.753046 1.34108 0.747639 1.4713 0.777512 1.59566L2.59939 8.31254H10.375V9.68754H2.59939L0.750012 16.3838C0.72198 16.4876 0.718708 16.5966 0.740459 16.702C0.762209 16.8073 0.808376 16.9061 0.875246 16.9903C0.942117 17.0746 1.02782 17.142 1.12548 17.1871C1.22313 17.2322 1.33001 17.2538 1.43751 17.25C1.54513 17.2494 1.6511 17.2235 1.74689 17.1744L16.8719 9.61191C16.9845 9.55422 17.079 9.46656 17.145 9.3586C17.211 9.25064 17.2459 9.12657 17.2459 9.00004C17.2459 8.8735 17.211 8.74943 17.145 8.64147C17.079 8.53351 16.9845 8.44585 16.8719 8.38816V8.38816Z" fill="#C4C4C4"/>
</svg>
