<svg width="80" height="80" viewBox="0 0 80 80" fill="none" xmlns="http://www.w3.org/2000/svg">
<path d="M39.9998 6.66669C21.6198 6.66669 6.6665 21.62 6.6665 40C6.6665 58.38 21.6198 73.3334 39.9998 73.3334C58.3798 73.3334 73.3332 58.38 73.3332 40C73.3332 21.62 58.3798 6.66669 39.9998 6.66669ZM39.9998 66.6667C25.2965 66.6667 13.3332 54.7034 13.3332 40C13.3332 25.2967 25.2965 13.3334 39.9998 13.3334C54.7032 13.3334 66.6665 25.2967 66.6665 40C66.6665 54.7034 54.7032 66.6667 39.9998 66.6667Z" fill="white"/>
<path d="M43.3332 23.3333H36.6665V41.38L47.6432 52.3566L52.3565 47.6433L43.3332 38.62V23.3333Z" fill="white"/>
</svg>
